<svg xmlns="http://www.w3.org/2000/svg" viewBox="0 0 1200 700">
  <defs>
    <linearGradient id="g" x1="0" y1="0" x2="1" y2="1">
      <stop offset="0" stop-color="#0b0f19"/>
      <stop offset="1" stop-color="#14223f"/>
    </linearGradient>
    <linearGradient id="a" x1="0" y1="1" x2="1" y2="0">
      <stop offset="0" stop-color="#b5162b" stop-opacity="0.95"/>
      <stop offset="1" stop-color="#1f5aa8" stop-opacity="0.9"/>
    </linearGradient>
  </defs>
  <rect width="1200" height="700" fill="url(#g)"/>
  <path d="M120 520C240 420 360 470 470 420C630 350 720 240 880 210C1010 186 1080 220 1140 250" fill="none" stroke="url(#a)" stroke-width="10" stroke-linecap="round"/>
  <path d="M120 430C250 390 330 320 460 300C580 281 670 320 790 286C930 240 1030 160 1140 150" fill="none" stroke="#ffffff" stroke-opacity="0.12" stroke-width="6" stroke-linecap="round"/>
  <g stroke="#ffffff" stroke-opacity="0.12">
    <line x1="140" y1="120" x2="140" y2="620"/>
    <line x1="300" y1="120" x2="300" y2="620"/>
    <line x1="460" y1="120" x2="460" y2="620"/>
    <line x1="620" y1="120" x2="620" y2="620"/>
    <line x1="780" y1="120" x2="780" y2="620"/>
    <line x1="940" y1="120" x2="940" y2="620"/>
    <line x1="1100" y1="120" x2="1100" y2="620"/>
  </g>
</svg>

