<svg xmlns="http://www.w3.org/2000/svg" viewBox="0 0 1200 700">
  <defs>
    <linearGradient id="g" x1="0" y1="0" x2="1" y2="1">
      <stop offset="0" stop-color="#0b0f19"/>
      <stop offset="1" stop-color="#1b2a3a"/>
    </linearGradient>
    <linearGradient id="b" x1="0" y1="0" x2="1" y2="0">
      <stop offset="0" stop-color="#1f5aa8" stop-opacity="0.95"/>
      <stop offset="1" stop-color="#b5162b" stop-opacity="0.9"/>
    </linearGradient>
  </defs>
  <rect width="1200" height="700" fill="url(#g)"/>
  <g fill="none" stroke="#ffffff" stroke-opacity="0.14" stroke-width="6">
    <path d="M140 520C260 380 380 610 520 440C660 270 760 520 920 300C1030 150 1100 230 1140 250"/>
    <path d="M140 420C280 340 420 500 560 380C700 260 820 420 980 260C1060 180 1100 160 1140 150"/>
  </g>
  <g stroke="url(#b)" stroke-width="10" stroke-linecap="round">
    <line x1="180" y1="560" x2="520" y2="360"/>
    <line x1="520" y1="360" x2="880" y2="450"/>
    <line x1="880" y1="450" x2="1080" y2="220"/>
  </g>
  <g fill="#ffffff" fill-opacity="0.12">
    <circle cx="180" cy="560" r="16"/>
    <circle cx="520" cy="360" r="16"/>
    <circle cx="880" cy="450" r="16"/>
    <circle cx="1080" cy="220" r="16"/>
  </g>
</svg>

