<svg xmlns="http://www.w3.org/2000/svg" viewBox="0 0 1200 700">
  <defs>
    <linearGradient id="g" x1="0" y1="0" x2="1" y2="1">
      <stop offset="0" stop-color="#0b0f19"/>
      <stop offset="1" stop-color="#14223f"/>
    </linearGradient>
    <linearGradient id="shade" x1="0" y1="0" x2="1" y2="0">
      <stop offset="0" stop-color="#1f5aa8" stop-opacity="0.35"/>
      <stop offset="1" stop-color="#b5162b" stop-opacity="0.35"/>
    </linearGradient>
  </defs>
  <rect width="1200" height="700" fill="url(#g)"/>
  <g stroke="#ffffff" stroke-opacity="0.12" stroke-width="4">
    <line x1="140" y1="560" x2="1060" y2="560"/>
    <line x1="140" y1="160" x2="140" y2="560"/>
  </g>
  <path d="M140 560C220 560 290 558 360 545C430 532 500 500 560 450C620 400 650 320 700 270C760 205 860 190 930 240C1000 290 1030 420 1060 560" fill="none" stroke="#ffffff" stroke-opacity="0.18" stroke-width="7" stroke-linecap="round"/>
  <path d="M420 560C480 540 540 500 590 440C640 380 670 320 700 270C730 225 770 200 820 200C870 200 910 230 940 260C980 300 1010 390 1030 560" fill="url(#shade)" stroke="none"/>
  <path d="M420 560C480 540 540 500 590 440C640 380 670 320 700 270C730 225 770 200 820 200C870 200 910 230 940 260C980 300 1010 390 1030 560" fill="none" stroke="#b5162b" stroke-opacity="0.75" stroke-width="8" stroke-linecap="round"/>
</svg>

